<?xml version="1.0" standalone="no"?>
<!DOCTYPE svg PUBLIC "-//W3C//DTD SVG 20010904//EN"
 "http://www.w3.org/TR/2001/REC-SVG-20010904/DTD/svg10.dtd">
<svg version="1.0" xmlns="http://www.w3.org/2000/svg"
 width="600.000000pt" height="500.000000pt" viewBox="0 0 600.000000 500.000000"
 preserveAspectRatio="xMidYMid meet">
<g transform="translate(0.000000,500.000000) scale(0.100000,-0.100000)"
fill="#000000" stroke="none">
<path d="M1045 4555 c-51 -18 -111 -81 -124 -133 -8 -28 -10 -608 -9 -1964 3
-1770 4 -1925 20 -1953 23 -42 66 -81 110 -99 33 -14 200 -16 1495 -16 1037 0
1470 3 1498 11 52 15 119 82 134 134 14 50 16 1109 2 1100 -5 -3 -37 -57 -70
-119 l-61 -114 0 -427 0 -426 -35 -15 c-29 -12 -238 -14 -1464 -14 -866 0
-1439 4 -1454 9 -16 6 -29 22 -35 43 -11 40 -9 3804 3 3831 4 10 19 23 32 28
14 5 466 9 1099 9 l1074 0 0 -369 c0 -348 1 -370 19 -392 l19 -24 371 -3 371
-3 0 -460 c0 -287 4 -458 9 -454 6 3 37 57 71 120 l61 114 -3 390 -3 391 -410
410 -411 410 -1134 0 c-952 -1 -1141 -3 -1175 -15z m2895 -765 c0 -4 -381 -4
-542 0 -5 0 -8 125 -8 277 l0 278 275 -275 c151 -151 275 -277 275 -280z"/>
<path d="M4970 3907 c-14 -7 -43 -46 -68 -90 -39 -69 -46 -77 -65 -70 -33 11
-67 7 -84 -9 -23 -23 -574 -1042 -569 -1053 6 -16 296 -167 309 -162 7 3 100
167 207 366 107 198 198 361 202 361 14 0 38 -105 38 -167 0 -71 7 -57 -244
-518 -91 -168 -136 -260 -136 -281 0 -40 27 -64 73 -64 43 0 42 -1 162 220 43
80 120 222 171 317 108 196 129 262 121 368 -6 74 -41 189 -78 254 l-22 39 37
67 c51 93 47 133 -19 171 -18 10 -16 15 23 87 46 83 51 114 25 145 -24 27 -53
34 -83 19z"/>
<path d="M1457 3762 c-25 -27 -22 -78 5 -96 20 -14 102 -16 695 -16 660 0 673
0 693 20 25 25 26 72 2 93 -17 16 -80 17 -699 17 -646 0 -681 -1 -696 -18z"/>
<path d="M1457 3372 c-25 -27 -22 -78 5 -96 20 -14 139 -16 1083 -16 1176 0
1105 -4 1105 64 0 71 83 66 -1107 66 -1024 0 -1071 -1 -1086 -18z"/>
<path d="M1462 2984 c-28 -19 -30 -74 -4 -97 17 -16 107 -17 1089 -17 1024 0
1071 1 1086 18 25 27 22 78 -5 96 -20 14 -139 16 -1083 16 -944 0 -1063 -2
-1083 -16z"/>
<path d="M1462 2594 c-28 -19 -30 -74 -4 -97 17 -16 107 -17 1089 -17 1024 0
1071 1 1086 18 25 27 22 78 -5 96 -20 14 -139 16 -1083 16 -944 0 -1063 -2
-1083 -16z"/>
<path d="M4069 2492 c-20 -37 -127 -235 -239 -439 -111 -205 -215 -405 -230
-445 -38 -97 -75 -245 -96 -376 -10 -59 -19 -109 -20 -111 -13 -15 -256 -63
-346 -68 -166 -9 -237 27 -225 114 24 162 21 173 -42 173 -73 0 -219 -90 -356
-220 -97 -91 -183 -140 -215 -120 -35 22 19 152 141 340 74 114 89 147 89 189
0 42 -22 54 -81 49 -96 -10 -281 -120 -594 -353 -243 -181 -309 -216 -343
-181 -38 38 -1 138 78 210 42 38 104 70 154 81 16 3 42 20 59 37 29 28 30 31
13 43 -38 28 -183 -29 -272 -108 -60 -53 -133 -157 -150 -214 -29 -96 20 -150
126 -140 89 8 209 78 441 259 174 136 207 157 327 218 93 46 132 59 132 44 0
-11 -25 -53 -100 -164 -120 -178 -158 -267 -145 -337 22 -119 139 -93 361 81
142 111 252 186 272 186 11 0 13 -7 8 -27 -4 -16 -9 -55 -12 -88 -6 -56 -4
-63 21 -93 47 -56 97 -75 205 -80 107 -4 186 9 347 59 90 28 113 40 185 98
119 95 269 241 332 324 30 40 112 178 182 307 70 129 176 325 236 434 59 109
108 202 108 207 0 7 -49 36 -220 127 l-95 51 -36 -67z"/>
<path d="M1462 2204 c-15 -10 -22 -25 -22 -49 0 -69 -44 -65 729 -65 663 0
699 1 714 18 25 27 22 78 -5 96 -20 14 -104 16 -708 16 -604 0 -688 -2 -708
-16z"/>
</g>
</svg>
