<svg version="1.0" xmlns="http://www.w3.org/2000/svg" width="600.000000pt" height="607.000000pt" viewBox="0 0 600.000000 607.000000" preserveAspectRatio="xMidYMid meet" style="width: 498px; height: auto;"> <g transform="translate(0.000000,607.000000) scale(0.100000,-0.100000)" fill="#000000" stroke="none" class=""> <path d="M3980 4639 c-359 -96 -515 -222 -553 -445 -11 -66 -2 -155 23 -219 l11 -30 37 70 c63 119 196 271 302 345 40 28 38 25 -51 -85 -92 -115 -199 -302 -199 -347 0 -41 176 -12 272 45 57 33 130 112 162 175 49 96 67 185 73 350 l6 152 -24 -1 c-13 0 -40 -5 -59 -10z"></path> <path d="M2963 4161 c-71 -56 -146 -143 -179 -209 -24 -48 -28 -69 -28 -137 0 -58 5 -90 18 -115 19 -36 94 -120 108 -120 4 0 8 40 8 88 0 89 16 172 48 246 18 40 18 40 14 -141 -3 -100 -2 -189 2 -198 5 -15 9 -14 37 2 49 28 116 109 133 160 25 72 20 152 -14 254 -27 81 -85 209 -94 209 -2 0 -26 -17 -53 -39z"></path> <path d="M4160 3809 c0 -3 14 -37 31 -75 17 -38 43 -112 57 -164 23 -85 26 -114 26 -280 1 -163 -2 -196 -23 -274 -61 -232 -177 -424 -344 -568 -96 -82 -175 -132 -347 -218 -166 -83 -230 -123 -305 -192 -111 -101 -205 -301 -205 -435 0 -28 22 -29 162 -8 248 37 492 142 677 290 283 226 473 558 521 913 15 111 8 352 -14 460 -26 126 -74 262 -136 387 -53 106 -99 182 -100 164z"></path> <path d="M1813 3758 c-149 -234 -237 -580 -218 -858 39 -578 417 -1068 965 -1250 89 -30 266 -68 275 -59 9 10 6 264 -4 317 -38 194 -151 375 -310 496 -31 23 -121 82 -201 130 -163 99 -240 157 -321 242 -138 146 -212 305 -239 511 -17 137 12 332 69 467 11 25 18 46 16 46 -3 0 -17 -19 -32 -42z"></path> <path d="M3275 3711 c-88 -70 -214 -206 -272 -292 -145 -215 -213 -431 -213 -679 0 -158 20 -262 91 -474 66 -200 82 -257 99 -365 l12 -73 19 41 c35 79 112 187 182 254 l70 68 -35 29 c-91 75 -207 266 -249 411 -46 161 -35 401 27 567 53 141 172 345 279 477 69 86 68 85 59 85 -5 -1 -36 -22 -69 -49z"></path> <path d="M3510 3741 c-89 -29 -157 -89 -178 -157 -9 -32 -9 -35 6 -29 57 22 137 35 212 34 132 -2 151 -13 45 -27 -98 -13 -255 -57 -255 -72 0 -12 76 -73 120 -96 51 -27 168 -25 235 5 58 26 225 131 225 142 0 18 -151 143 -205 170 -64 31 -160 45 -205 30z"></path> <path d="M1992 3714 c-17 -4 -21 -10 -17 -27 81 -333 106 -395 199 -494 84 -91 160 -126 280 -131 64 -3 111 1 156 12 35 9 66 19 68 21 20 20 -210 251 -332 333 -90 60 -83 66 25 18 105 -45 224 -132 309 -224 l72 -77 -4 115 c-3 107 -6 120 -37 183 -63 126 -170 209 -326 252 -59 16 -342 30 -393 19z"></path> <path d="M3469 3132 c-140 -47 -253 -145 -314 -274 -32 -66 -63 -183 -52 -194 3 -3 38 19 79 48 146 105 314 165 488 174 l95 5 -90 -31 c-193 -66 -461 -218 -511 -288 -14 -20 -12 -22 58 -56 177 -85 328 -86 491 -5 75 38 200 161 268 264 66 99 150 248 146 259 -4 12 -130 61 -224 87 -113 31 -355 37 -434 11z"></path>  </g> </svg>