<svg version="1.0" xmlns="http://www.w3.org/2000/svg" width="600.000000pt" height="472.000000pt" viewBox="0 0 600.000000 472.000000" preserveAspectRatio="xMidYMid meet" style="width: 498px; height: auto;"> <g transform="translate(0.000000,472.000000) scale(0.100000,-0.100000)" fill="#000000" stroke="none" class="">  <path d="M2890 4677 c-46 -23 -51 -46 -48 -263 3 -182 5 -204 22 -223 27 -30 86 -28 114 2 21 22 22 32 22 229 0 114 -3 214 -6 223 -6 15 -54 45 -71 45 -4 0 -19 -6 -33 -13z"></path> <path d="M1885 4395 c-15 -14 -25 -36 -25 -52 0 -38 190 -363 222 -382 43 -25 101 3 114 55 5 19 -16 63 -91 196 -54 94 -106 179 -116 189 -27 27 -75 24 -104 -6z"></path> <path d="M3863 4405 c-31 -21 -213 -345 -213 -378 0 -35 40 -77 73 -77 43 0 72 35 171 209 78 136 97 176 92 196 -15 58 -76 83 -123 50z"></path> <path d="M1166 3677 c-31 -31 -34 -75 -8 -105 23 -27 327 -202 363 -209 22 -4 35 1 59 25 63 63 40 92 -160 208 -189 110 -217 118 -254 81z"></path> <path d="M4442 3606 c-90 -52 -172 -102 -182 -111 -25 -23 -26 -75 -2 -104 38 -46 64 -39 246 66 179 104 213 134 202 177 -9 37 -41 66 -73 66 -17 0 -94 -38 -191 -94z"></path> <path d="M2212 3595 c-389 -73 -594 -496 -415 -855 34 -68 65 -103 332 -372 162 -164 296 -296 299 -294 2 3 -27 58 -66 123 -207 351 -311 533 -322 568 -16 48 -8 131 18 181 71 137 250 175 375 80 18 -14 53 -59 77 -101 25 -41 47 -75 50 -75 3 0 14 21 24 48 29 68 114 154 189 188 81 37 201 40 288 6 74 -29 152 -102 193 -180 l33 -64 38 64 c68 114 123 155 219 165 148 15 268 -95 267 -246 0 -73 6 -61 -219 -446 -96 -165 -177 -304 -180 -310 -15 -32 577 570 608 617 20 31 50 95 65 142 25 78 27 94 23 203 -4 100 -9 129 -33 188 -36 90 -91 170 -154 228 -112 100 -242 150 -396 150 -191 1 -302 -52 -483 -227 l-122 -119 -129 126 c-106 103 -141 131 -202 160 -125 59 -251 76 -377 52z" class=""></path> <path d="M895 3129 c-56 -28 -90 -64 -116 -123 -21 -50 -22 -57 -15 -311 4 -143 13 -526 21 -852 9 -326 20 -614 25 -641 25 -136 84 -228 234 -365 272 -249 320 -308 361 -450 l16 -57 515 0 514 0 0 153 c-1 276 -17 515 -40 595 -24 86 -73 186 -126 260 -47 65 -771 723 -822 748 -160 76 -342 -39 -342 -216 0 -104 18 -128 244 -332 294 -265 316 -287 316 -321 0 -94 -90 -139 -162 -80 -94 79 -477 430 -501 462 -136 174 -125 410 27 569 55 57 81 75 169 111 37 16 47 25 47 43 -1 13 -5 161 -10 330 -8 282 -10 310 -31 357 -23 55 -73 105 -125 127 -49 21 -151 17 -199 -7z" class=""></path> <path d="M4750 3134 c-46 -20 -96 -69 -123 -119 -18 -36 -22 -65 -28 -260 -12 -351 -11 -465 4 -465 6 0 40 -13 75 -30 84 -39 164 -120 205 -207 30 -64 32 -74 32 -183 0 -104 -3 -120 -27 -173 -15 -32 -37 -71 -49 -88 -11 -16 -138 -135 -280 -264 -243 -220 -262 -235 -297 -235 -40 0 -67 20 -91 68 -26 50 -9 71 227 285 278 251 297 271 317 326 32 93 13 174 -60 246 -80 81 -180 98 -274 48 -45 -25 -489 -417 -710 -628 -130 -124 -200 -240 -241 -400 -18 -67 -23 -129 -30 -380 -5 -165 -9 -310 -10 -322 l0 -23 519 0 519 0 7 39 c9 52 58 155 103 214 20 26 107 111 193 188 261 235 304 314 315 574 15 367 41 1588 35 1617 -17 74 -75 144 -143 172 -47 20 -142 20 -188 0z" class=""></path> <path d="M2870 2951 c-75 -23 -125 -71 -149 -140 -44 -132 59 -271 202 -271 69 0 132 32 172 88 39 57 47 149 17 209 -48 93 -151 141 -242 114z"></path> <path d="M2234 2908 c-24 -11 -44 -48 -44 -79 0 -12 96 -183 212 -382 l213 -362 3 -107 4 -106 88 -86 c97 -96 135 -116 212 -116 77 1 122 26 220 126 l87 89 3 105 4 105 207 353 c225 384 231 399 182 447 -30 31 -73 32 -108 5 -13 -11 -80 -115 -148 -232 -68 -117 -138 -229 -156 -248 l-31 -35 -249 -3 c-245 -3 -249 -3 -282 20 -24 17 -71 87 -167 253 -74 127 -144 238 -155 248 -23 19 -63 21 -95 5z"></path> <path d="M1445 2698 c-3 -7 -3 -26 -1 -43 2 -16 4 -103 5 -193 1 -145 3 -163 19 -169 57 -19 131 -58 168 -88 23 -19 45 -35 48 -35 9 0 7 146 -4 239 -5 48 -19 103 -32 129 -27 57 -92 123 -147 151 -47 25 -50 25 -56 9z"></path> <path d="M4345 2689 c-59 -31 -122 -97 -153 -159 -25 -50 -27 -68 -32 -203 -3 -82 -3 -150 0 -152 3 -2 31 16 63 41 32 24 82 51 111 60 l53 17 7 111 c8 151 8 306 -2 306 -4 0 -25 -9 -47 -21z"></path> <path d="M1520 130 l-324 -5 -13 -25 c-7 -14 -13 -42 -13 -62 l0 -38 775 0 775 0 0 44 c0 28 -7 52 -19 67 l-19 24 -419 0 c-230 1 -564 -2 -743 -5z"></path> <path d="M3165 129 c-30 -18 -35 -29 -35 -81 l0 -48 770 0 770 0 0 48 c0 86 59 80 -760 87 -561 5 -730 3 -745 -6z"></path> </g> </svg>