<svg version="1.0" xmlns="http://www.w3.org/2000/svg" width="600.000000pt" height="375.000000pt" viewBox="0 0 600.000000 375.000000" preserveAspectRatio="xMidYMid meet" style="width: 462.703px; height: auto;"> <g transform="translate(0.000000,375.000000) scale(0.100000,-0.100000)" fill="#000000" stroke="none" class=""> <path d="M2785 3195 l-210 -204 108 -1 107 0 0 -479 0 -478 47 23 c41 21 60 24 163 24 103 0 122 -3 163 -24 l47 -23 0 478 0 479 108 0 107 1 -210 204 c-115 112 -212 204 -215 204 -3 0 -99 -92 -215 -204z" class=""></path> <path d="M1567 2446 c-109 -113 -197 -210 -195 -215 1 -5 91 -101 198 -213 l195 -204 5 105 c5 105 5 106 31 109 46 5 168 -26 246 -64 56 -27 96 -56 150 -110 l74 -75 51 46 c83 75 160 83 233 25 43 -34 94 -47 124 -31 27 15 26 21 -5 84 -46 90 -105 170 -185 249 -171 170 -389 270 -623 287 l-91 6 -5 104 -5 103 -198 -206z"></path> <path d="M4228 2550 l-3 -105 -90 -6 c-341 -25 -655 -233 -809 -536 -31 -63 -32 -69 -5 -84 30 -16 81 -3 124 31 73 58 150 50 234 -26 l50 -45 68 69 c106 107 233 168 364 174 l64 3 5 -106 5 -106 195 204 c107 113 196 210 197 216 2 7 -87 104 -197 217 l-199 205 -3 -105z" class=""></path> <path d="M2867 1965 c-8 -7 -18 -36 -22 -62 -11 -78 -50 -130 -122 -167 -64 -32 -181 -12 -222 38 -8 9 -28 16 -45 16 -27 0 -45 -13 -114 -84 -45 -46 -82 -92 -82 -101 0 -10 11 -33 26 -52 51 -68 64 -123 43 -196 -20 -75 -111 -146 -185 -147 -61 0 -69 -16 -72 -142 -4 -139 4 -156 87 -169 77 -12 127 -49 158 -116 35 -75 28 -136 -23 -210 -26 -38 -35 -59 -30 -76 8 -33 159 -177 185 -177 12 0 44 15 71 34 58 40 112 52 167 37 89 -24 145 -90 158 -183 10 -70 27 -78 155 -78 128 0 145 8 155 78 13 93 69 159 158 183 55 15 109 3 167 -37 27 -19 59 -34 71 -34 26 0 177 144 185 177 5 17 -4 38 -30 76 -51 74 -58 135 -23 210 31 67 81 104 158 116 83 13 91 30 87 169 -3 126 -11 142 -72 142 -45 1 -107 32 -143 73 -70 79 -69 185 2 269 14 16 25 39 25 50 0 12 -33 55 -82 104 -69 71 -87 84 -114 84 -17 0 -37 -7 -45 -16 -41 -50 -158 -70 -222 -38 -72 37 -111 89 -122 167 -11 73 -18 77 -155 77 -90 0 -122 -3 -133 -15z m225 -466 c117 -25 222 -98 289 -201 129 -201 71 -482 -127 -613 -154 -102 -354 -102 -508 0 -198 131 -256 412 -127 613 104 161 290 239 473 201z" class=""></path>  </g> </svg>