<svg version="1.0" xmlns="http://www.w3.org/2000/svg" width="600.000000pt" height="374.000000pt" viewBox="0 0 600.000000 374.000000" preserveAspectRatio="xMidYMid meet" style="width: 456.561px; height: auto;"> <g transform="translate(0.000000,374.000000) scale(0.100000,-0.100000)" fill="#000000" stroke="none" class=""> <path d="M2755 3204 c-11 -2 -45 -9 -75 -15 -174 -35 -336 -164 -419 -335 -46 -94 -61 -171 -61 -316 l0 -126 -36 -21 c-29 -17 -35 -26 -32 -48 4 -35 38 -53 104 -53 l51 0 6 -147 c10 -257 71 -400 244 -570 79 -77 83 -83 83 -125 0 -57 -17 -115 -40 -138 -10 -10 -64 -32 -121 -49 -338 -103 -539 -173 -593 -206 -130 -78 -222 -181 -287 -318 -53 -114 -61 -157 -66 -363 l-5 -191 30 -34 30 -34 1381 0 1381 0 27 28 28 28 0 187 c0 164 -3 197 -23 266 -13 43 -21 80 -20 81 2 1 24 16 49 33 59 40 110 96 137 154 108 222 -27 488 -272 538 -165 34 -342 -59 -412 -214 -16 -36 -33 -66 -39 -66 -10 0 -432 131 -468 145 -28 11 -49 63 -55 131 l-5 63 90 88 c173 170 243 343 243 598 l0 115 58 0 c67 0 102 19 102 56 0 17 -10 30 -34 45 l-34 20 -5 152 c-3 120 -9 164 -25 210 -74 205 -225 352 -421 410 -54 16 -104 20 -271 23 -113 1 -214 1 -225 -2z m455 -85 c83 -19 189 -79 254 -144 114 -114 165 -249 166 -436 l0 -97 -76 24 c-239 73 -550 101 -830 73 -143 -14 -352 -59 -436 -94 -17 -7 -18 2 -18 96 0 186 52 322 166 434 91 90 191 139 322 155 82 11 391 3 452 -11z m-87 -649 c149 -11 287 -36 407 -74 l75 -24 -655 0 -655 0 70 23 c211 69 474 95 758 75z m417 -285 c0 -134 -21 -238 -69 -340 -73 -155 -178 -262 -330 -338 -83 -41 -86 -42 -191 -42 -105 0 -108 1 -191 42 -140 70 -244 170 -313 303 -58 111 -77 189 -83 343 l-6 137 592 0 591 0 0 -105z m-781 -759 c129 -55 250 -55 384 0 33 13 62 24 64 24 2 0 3 -17 3 -39 0 -49 16 -97 47 -139 29 -39 24 -62 -21 -97 -125 -95 -368 -110 -519 -31 -73 38 -108 78 -89 104 32 45 62 120 62 160 0 23 2 42 5 42 3 0 32 -11 64 -24z m1477 -67 c74 -13 131 -46 182 -105 54 -61 75 -126 70 -217 -4 -89 -35 -154 -96 -208 -123 -108 -309 -103 -422 11 -174 173 -81 472 161 519 24 5 44 9 45 10 0 1 27 -4 60 -10z m-1665 -186 c53 -83 187 -140 344 -150 191 -11 365 58 430 172 10 16 15 17 48 6 l37 -13 0 -274 0 -274 -480 0 -480 0 0 274 0 274 28 10 c42 16 47 14 73 -25z m-171 -336 c0 -357 -2 -367 -60 -367 -58 0 -60 12 -60 351 l0 307 43 15 c84 30 77 57 77 -306z m1173 307 l47 -16 0 -307 c0 -261 -2 -310 -16 -329 -18 -26 -60 -29 -86 -5 -17 15 -18 39 -18 345 0 265 3 328 13 328 7 0 34 -7 60 -16z m-1363 -274 l0 -230 -45 0 c-66 0 -118 -30 -144 -83 -19 -39 -21 -61 -21 -205 l0 -162 -207 2 -208 3 0 165 c1 192 10 240 70 366 51 105 142 205 240 264 55 32 260 108 298 109 16 1 17 -16 17 -229z m1569 207 c22 -10 27 -20 32 -68 13 -122 94 -235 208 -292 57 -28 78 -32 158 -35 l92 -4 15 -45 c24 -70 37 -197 34 -323 l-3 -115 -207 -3 -208 -2 0 163 c0 151 -2 167 -23 207 -28 53 -75 80 -139 80 l-48 0 0 231 0 232 31 -7 c17 -3 43 -12 58 -19z m-1567 -557 c16 -164 240 -164 256 0 l5 50 478 0 479 0 0 -36 c0 -81 52 -134 133 -134 72 0 127 58 127 135 0 34 1 35 41 35 31 0 47 -6 70 -29 l29 -29 0 -161 0 -161 -880 0 -880 0 0 161 0 161 29 29 c23 22 39 29 69 29 l39 0 5 -50z"></path> <path d="M4239 1104 l-118 -117 -51 47 c-47 44 -53 47 -72 34 -12 -8 -24 -20 -26 -27 -6 -17 121 -141 144 -141 11 0 74 54 153 134 108 108 132 137 127 154 -15 46 -36 35 -157 -84z"></path> <path d="M1943 1915 c-15 -25 -52 -61 -80 -81 -32 -22 -53 -44 -53 -55 0 -11 20 -34 49 -55 28 -19 66 -57 85 -85 20 -27 40 -49 46 -49 14 0 43 31 65 67 9 16 39 44 65 62 27 18 51 40 55 49 7 18 -16 45 -61 73 -18 11 -49 42 -68 69 -45 63 -65 64 -103 5z m71 -88 c12 -13 31 -29 41 -35 18 -9 16 -13 -23 -51 l-42 -41 -15 23 c-8 13 -26 30 -40 37 l-25 13 37 37 c21 20 40 38 42 39 2 0 13 -10 25 -22z"></path> <path d="M1566 1553 c-19 -27 -55 -61 -80 -78 -72 -48 -71 -67 5 -116 28 -17 56 -43 64 -58 7 -14 23 -36 35 -49 26 -28 48 -18 80 33 12 20 47 54 76 76 33 24 54 47 54 59 0 11 -21 33 -54 56 -29 21 -65 57 -80 81 -34 57 -56 56 -100 -4z m93 -101 l42 -38 -26 -14 c-13 -7 -31 -23 -39 -36 l-15 -22 -42 40 -41 39 38 34 c22 19 40 34 40 35 1 0 20 -17 43 -38z"></path>  </g> </svg>